<svg width="45" height="45" viewBox="0 0 45 45" fill="none" xmlns="http://www.w3.org/2000/svg">
<path d="M22.5 23.9062C25.5563 23.9062 28.2563 24.6375 30.45 25.5937C32.475 26.4937 33.75 28.5187 33.75 30.7125V33.75H11.25V30.7312C11.25 28.5187 12.525 26.4937 14.55 25.6125C16.7438 24.6375 19.4438 23.9062 22.5 23.9062ZM7.5 24.375C9.5625 24.375 11.25 22.6875 11.25 20.625C11.25 18.5625 9.5625 16.875 7.5 16.875C5.4375 16.875 3.75 18.5625 3.75 20.625C3.75 22.6875 5.4375 24.375 7.5 24.375ZM9.61875 26.4375C8.925 26.325 8.23125 26.25 7.5 26.25C5.64375 26.25 3.88125 26.6438 2.2875 27.3375C1.60821 27.6279 1.02923 28.1114 0.622534 28.7282C0.215836 29.3449 -0.000644412 30.0675 1.44093e-06 30.8063V33.75H8.4375V30.7312C8.4375 29.175 8.86875 27.7125 9.61875 26.4375ZM37.5 24.375C39.5625 24.375 41.25 22.6875 41.25 20.625C41.25 18.5625 39.5625 16.875 37.5 16.875C35.4375 16.875 33.75 18.5625 33.75 20.625C33.75 22.6875 35.4375 24.375 37.5 24.375ZM45 30.8063C45 29.2875 44.1 27.9375 42.7125 27.3375C41.0684 26.6201 39.2938 26.2499 37.5 26.25C36.7687 26.25 36.075 26.325 35.3813 26.4375C36.1313 27.7125 36.5625 29.175 36.5625 30.7312V33.75H45V30.8063ZM22.5 11.25C25.6125 11.25 28.125 13.7625 28.125 16.875C28.125 19.9875 25.6125 22.5 22.5 22.5C19.3875 22.5 16.875 19.9875 16.875 16.875C16.875 13.7625 19.3875 11.25 22.5 11.25Z" fill="#2B6CB0"/>
<rect x="0.5" y="0.5" width="44" height="44" stroke="black" stroke-opacity="0.8"/>
</svg>
