<svg width="45" height="45" viewBox="0 0 45 45" fill="none" xmlns="http://www.w3.org/2000/svg">
<path d="M17.8125 10.3125C19.875 10.3125 21.5625 8.625 21.5625 6.5625C21.5625 4.5 19.875 2.8125 17.8125 2.8125C15.75 2.8125 14.0625 4.5 14.0625 6.5625C14.0625 8.625 15.75 10.3125 17.8125 10.3125ZM10.7812 16.6875L5.625 43.125H9.5625L12.8438 28.125L16.875 31.875V43.125H20.625V28.9688L16.7812 25.125L17.9062 19.5C20.3438 22.5 24 24.375 28.125 24.375V20.625C24.6562 20.625 21.6562 18.75 19.9688 16.0312L18.1875 13.0312C17.5312 11.9062 16.3125 11.25 15 11.25C14.5312 11.25 14.0625 11.3438 13.5938 11.5312L3.75 15.5625V24.375H7.5V18.0937L10.7812 16.6875ZM24.375 3.75V16.875H31.4062V43.125H34.2188V16.875H41.25V3.75H24.375ZM33.7688 15V11.7188H27.1875V8.90625H33.7688V5.625L38.4375 10.3125L33.7688 15Z" fill="#2B6CB0"/>
<rect x="0.5" y="0.5" width="44" height="44" stroke="black"/>
</svg>
