<svg width="45" height="45" viewBox="0 0 45 45" fill="none" xmlns="http://www.w3.org/2000/svg">
<path d="M10.8188 13.4062L13.5 8.9625L15.4312 5.75625C16.1625 4.5375 17.925 4.5375 18.6562 5.75625L21.4313 10.3688L19.125 14.2313L17.25 17.2688L10.8188 13.4062ZM40.725 24.3188L37.725 19.3313L31.2375 23.0813L35.3813 30H37.5C38.4946 30 39.4484 29.6049 40.1516 28.9016C40.8549 28.1984 41.25 27.2446 41.25 26.25C41.25 25.575 41.0625 24.9188 40.725 24.3188ZM30 39.375H32.8125C33.5102 39.3746 34.1939 39.1796 34.7868 38.812C35.3797 38.4443 35.8583 37.9185 36.1688 37.2937L38.8875 31.875H30V28.125L22.5 35.625L30 43.125V39.375ZM18.75 31.875H10.6875L9.1125 34.5187C8.55 35.4562 8.5125 36.6187 9 37.6125C9.525 38.6812 10.6313 39.375 11.85 39.375H18.75V31.875ZM11.475 26.9062L14.7188 28.8563L12.15 18.5625L1.875 21.1313L5.0625 23.0438L4.29375 24.3375C3.6375 25.4437 3.58125 26.7937 4.1625 27.9375L7.21875 34.05L11.475 26.9062ZM31.9125 9.6375L29.475 5.56875C28.7812 4.44375 27.5625 3.75 26.25 3.75H19.6313L25.4813 13.5L22.2563 15.4312L32.55 18L35.1187 7.70625L31.9125 9.6375Z" fill="#2B6CB0"/>
<rect x="0.5" y="0.5" width="44" height="44" stroke="black"/>
</svg>
